<svg width="41" height="35" viewBox="0 0 41 35" fill="none" xmlns="http://www.w3.org/2000/svg">
<path d="M20.5341 4.24377C14.8796 4.24377 10.2841 8.16669 10.2841 12.9938V17.2084C10.2841 18.0979 9.83997 19.4542 9.31038 20.2125L7.3458 22.9979C6.13288 24.7188 6.96997 26.6292 9.1908 27.2709C16.5537 29.3709 24.4975 29.3709 31.8604 27.2709C33.9275 26.6875 34.8329 24.6021 33.7054 22.9979L31.7408 20.2125C31.2283 19.4542 30.7841 18.0979 30.7841 17.2084V12.9938C30.7841 8.18127 26.1716 4.24377 20.5341 4.24377Z" stroke="#0A3B83" stroke-width="1.5" stroke-miterlimit="10" stroke-linecap="round"/>
<path d="M23.6946 4.66672C23.165 4.53547 22.6184 4.43339 22.0546 4.37506C20.4146 4.20006 18.8429 4.30214 17.3738 4.66672C17.8692 3.58756 19.0992 2.82922 20.5342 2.82922C21.9692 2.82922 23.1992 3.58756 23.6946 4.66672Z" stroke="#0A3B83" stroke-width="1.5" stroke-miterlimit="10" stroke-linecap="round" stroke-linejoin="round"/>
<path d="M25.6592 27.7958C25.6592 30.202 23.3529 32.1708 20.5342 32.1708C19.1333 32.1708 17.835 31.6749 16.9125 30.8874C15.99 30.0999 15.4092 28.9916 15.4092 27.7958" stroke="#0A3B83" stroke-width="1.5" stroke-miterlimit="10"/>
<circle cx="18" cy="4" r="3" fill="#D8727D"/>
</svg>
